<svg xmlns="http://www.w3.org/2000/svg" width="96" height="96" viewBox="0 0 96 96">
  <defs>
    <linearGradient id="grad1" x1="0%" y1="0%" x2="100%" y2="100%">
      <stop offset="0%" style="stop-color:#667eea;stop-opacity:1" />
      <stop offset="100%" style="stop-color:#764ba2;stop-opacity:1" />
    </linearGradient>
  </defs>
  <circle cx="48" cy="48" r="44" fill="url(#grad1)"/>
  <path d="M48 24C34.74 24 24 34.74 24 48s10.74 24 23.98 24C61.24 72 72 61.26 72 48S61.24 24 48 24zm0 43.2c-10.58 0-19.2-8.62-19.2-19.2s8.62-19.2 19.2-19.2 19.2 8.62 19.2 19.2-8.62 19.2-19.2 19.2zm1.2-31.2H45.6v14.4l12.6 7.56 1.8-2.96-10.8-6.4V36z" fill="white"/>
  <path d="M60 30h6v6h4v-6h6v-4h-6v-6h-4v6h-6z" fill="#38ef7d"/>
</svg>
